<svg width="269" height="208" viewBox="0 0 269 208" fill="none" xmlns="http://www.w3.org/2000/svg">
<path d="M44.3027 0.00195312L44.3066 0L111.272 115.921V16.4756C111.272 10.7087 111.272 7.82473 112.395 5.62207C113.382 3.68456 114.959 2.10928 116.897 1.12207C119.101 -0.000203582 121.987 0 127.757 0H156.605V0.00195312L156.608 0L223.667 116.081V16.4756C223.667 10.7087 223.667 7.82473 224.79 5.62207C225.778 3.68465 227.354 2.10925 229.293 1.12207C231.497 2.55102e-05 234.382 4.4324e-10 240.151 0H269V208H235.206C234.093 208 233.133 208 232.295 207.983C231.58 208.021 230.868 207.984 230.169 207.875C229.116 207.769 228.31 207.574 227.604 207.215C227.302 207.061 227.011 206.885 226.735 206.691C226.535 206.58 226.338 206.461 226.146 206.336C224.071 204.99 222.629 202.493 219.744 197.499L156.605 88.2021V208H122.812C121.728 208 120.79 208 119.968 207.984C119.314 208.017 118.662 207.988 118.021 207.897C116.845 207.798 115.97 207.602 115.21 207.215C114.776 206.994 114.47 206.733 113.991 206.431C113.967 206.416 113.93 206.392 113.93 206.392C113.901 206.373 113.872 206.355 113.844 206.336C111.769 204.99 110.326 202.493 107.441 197.499L44.3027 88.2021V208H0V16.4756C0 10.7087 9.12885e-05 7.82473 1.12305 5.62207C2.11083 3.68465 3.68742 2.10925 5.62598 1.12207C7.8298 2.06599e-05 10.7148 4.91842e-10 16.4844 0H44.3027V0.00195312Z" fill="url(#paint0_linear_10_8)"/>
<path d="M44.3027 0.00195312L44.3066 0L111.272 115.921V16.4756C111.272 10.7087 111.272 7.82473 112.395 5.62207C113.382 3.68456 114.959 2.10928 116.897 1.12207C119.101 -0.000203582 121.987 0 127.757 0H156.605V0.00195312L156.608 0L223.667 116.081V16.4756C223.667 10.7087 223.667 7.82473 224.79 5.62207C225.778 3.68465 227.354 2.10925 229.293 1.12207C231.497 2.55102e-05 234.382 4.4324e-10 240.151 0H269V208H235.206C234.093 208 233.133 208 232.295 207.983C231.58 208.021 230.868 207.984 230.169 207.875C229.116 207.769 228.31 207.574 227.604 207.215C227.302 207.061 227.011 206.885 226.735 206.691C226.535 206.58 226.338 206.461 226.146 206.336C224.071 204.99 222.629 202.493 219.744 197.499L156.605 88.2021V208H122.812C121.728 208 120.79 208 119.968 207.984C119.314 208.017 118.662 207.988 118.021 207.897C116.845 207.798 115.97 207.602 115.21 207.215C114.776 206.994 114.47 206.733 113.991 206.431C113.967 206.416 113.93 206.392 113.93 206.392C113.901 206.373 113.872 206.355 113.844 206.336C111.769 204.99 110.326 202.493 107.441 197.499L44.3027 88.2021V208H0V16.4756C0 10.7087 9.12885e-05 7.82473 1.12305 5.62207C2.11083 3.68465 3.68742 2.10925 5.62598 1.12207C7.8298 2.06599e-05 10.7148 4.91842e-10 16.4844 0H44.3027V0.00195312Z" stroke="black"/>
<defs>
<linearGradient id="paint0_linear_10_8" x1="13.9138" y1="20.0792" x2="314.667" y2="243.275" gradientUnits="userSpaceOnUse">
<stop stop-color="#B1DAF5"/>
<stop offset="0.589489" stop-color="#435CDA"/>
<stop offset="1" stop-color="#2C3E75"/>
</linearGradient>
</defs>
</svg>
